<?xml version="1.0" ?><svg viewBox="0 0 32 32" xmlns="http://www.w3.org/2000/svg"><title/><g id="brain"><path d="M31,15.57a5.25,5.25,0,0,0-1.57-3.71,5.1,5.1,0,0,0,.21-1.46,5.2,5.2,0,0,0-4.78-5.18,4.41,4.41,0,0,0-.15-.55A5.18,5.18,0,0,0,16,2.61a5.19,5.19,0,0,0-8.71,2,3.39,3.39,0,0,0-.14.57A5.2,5.2,0,0,0,2.36,10.4a5.1,5.1,0,0,0,.21,1.46A5.25,5.25,0,0,0,1,15.57a5.18,5.18,0,0,0,1.56,3.7,5.36,5.36,0,0,0-.2,1.43,5.21,5.21,0,0,0,4.69,5.18,5,5,0,0,0,.24,1.45A5.18,5.18,0,0,0,16,29.39a5.19,5.19,0,0,0,8.71-2A5.26,5.26,0,0,0,25,25.88a5.21,5.21,0,0,0,4.69-5.18,5.36,5.36,0,0,0-.2-1.43A5.18,5.18,0,0,0,31,15.57ZM7.26,11.92a1,1,0,0,1,1.32-.51,2.83,2.83,0,0,0,1.36.24,4.71,4.71,0,0,1-1.09-2,1,1,0,0,1,2-.41,2.9,2.9,0,0,0,1.66,1.83,1,1,0,0,1,.16,1.74,5.59,5.59,0,0,1-2.9.86,4.76,4.76,0,0,1-2-.42A1,1,0,0,1,7.26,11.92ZM7.1,18a1,1,0,0,1-.71.29,1,1,0,0,1-.7-.29c-1.21-1.21-.67-3-.15-3.81a1,1,0,1,1,1.71,1s-.53,1-.15,1.36A1,1,0,0,1,7.1,18Zm1.34,4h0a1,1,0,0,1,0-2,3,3,0,0,0,3-2.23l.06-.23a1,1,0,0,1,1.95.45c0,.11,0,.22-.08.34-.24,1-.37,2.7.16,3.43a1,1,0,0,1-.8,1.59,1,1,0,0,1-.81-.4,4.16,4.16,0,0,1-.68-1.75A5.14,5.14,0,0,1,8.44,22Zm4.62,4.48a1.35,1.35,0,0,0-.69.23,1,1,0,0,1-.91.58.92.92,0,0,1-.42-.1,1,1,0,0,1-.48-1.33,2.91,2.91,0,0,1,2.37-1.38,1,1,0,0,1,.13,2ZM13.4,7.34a1,1,0,0,1-.33.06,1,1,0,0,1-1-.68c-.07-.22-.31-.19-.35-.19a1,1,0,0,1-1.13-.84,1,1,0,0,1,.84-1.14A2.31,2.31,0,0,1,14,6.07,1,1,0,0,1,13.4,7.34Zm9,1.12a1,1,0,0,1,.78,1.18,4.66,4.66,0,0,1-1.09,2,2.73,2.73,0,0,0,1.36-.24,1,1,0,0,1,.82,1.83,4.76,4.76,0,0,1-2,.42,5.59,5.59,0,0,1-2.9-.86,1,1,0,0,1,.16-1.74,2.91,2.91,0,0,0,1.66-1.82A1,1,0,0,1,22.37,8.46ZM18,6.07a2.3,2.3,0,0,1,2.53-1.52,1,1,0,0,1-.27,2c-.29,0-.36.13-.37.18a1,1,0,0,1-.95.68,1,1,0,0,1-.33-.06A1,1,0,0,1,18,6.07Zm3,21.11a1.06,1.06,0,0,1-.42.09,1,1,0,0,1-.91-.58,1.36,1.36,0,0,0-.68-.22A1,1,0,0,1,18,25.41a1,1,0,0,1,1.06-.94,2.91,2.91,0,0,1,2.37,1.38A1,1,0,0,1,21,27.18ZM23.57,22h0a5.14,5.14,0,0,1-2.79-.8,4.16,4.16,0,0,1-.68,1.75,1,1,0,0,1-.81.4,1,1,0,0,1-.8-1.59c.55-.75.37-2.49.16-3.44,0-.11-.06-.22-.08-.33a1,1,0,0,1,2-.45s0,.13.06.24a3,3,0,0,0,3,2.22,1,1,0,0,1,0,2Zm2.74-4a1,1,0,0,1-.7.29A1,1,0,0,1,24.9,18a1,1,0,0,1,0-1.42c.38-.38-.14-1.34-.15-1.35a1,1,0,0,1,.34-1.38,1,1,0,0,1,1.37.34C27,15,27.52,16.79,26.31,18Z"/></g></svg>