<?xml version="1.0" encoding="utf-8"?>
<!-- Generator: Adobe Illustrator 26.0.1, SVG Export Plug-In . SVG Version: 6.00 Build 0)  -->
<svg version="1.1" id="Layer_1" xmlns="http://www.w3.org/2000/svg" xmlns:xlink="http://www.w3.org/1999/xlink" x="0px" y="0px"
	 viewBox="0 0 2000 1000" style="enable-background:new 0 0 2000 1000;" xml:space="preserve">
<style type="text/css">
	.st0{display:none;}
	.st1{fill:#363636;}
</style>
<g id="Layer_1_00000009563350905581501750000014082768339339187598_" class="st0">
	
		<image style="display:inline;overflow:visible;opacity:0.5;enable-background:new    ;" width="1024" height="1024" xlink:href="B6ACEDD0465230ED.jpeg"  transform="matrix(1.9501 0 0 1.9501 -3 -505)">
	</image>
</g>
<g id="Layer_2_00000102503141605691877070000017559575013944644246_">
	<g>
		<g>
			<path class="st1" d="M64.8,293.3c30.1-33.2,186.9-77.9,224.8-80.4c35.3-1.3,49.7,52.3,58.8,100.9
				c36.6-79.2,109.8-116.2,194.7-116.2c86.2,0,177.7,43.4,218.2,157c22.2-102.2,105.8-157,207.8-157c95.4,0,194.7,54.9,226.1,208.1
				c13.1,74.1,31.4,166,47,246.4c19.6,51.1,73.2,86.8,73.2,116.2v11.5c0,8.9-9.2,17.9-20.9,17.9H959.9c-11.8,0-22.2-7.7-22.2-16.6
				c0,0-1.3-17.9,1.3-28.1c11.8-24.3,82.3-68.9,78.4-117.5c0-14.1-13.1-129-32.7-241.3c-11.8-57.5-32.7-106-94.1-104.7
				c-94.1,0-109.8,127.7-104.5,186.4h-1.3c6.5,54.9,7.8,107.3,18.3,163.4c14.4,57.5,78.4,99.6,78.4,129v11.5
				c0,8.9-9.2,17.9-19.6,17.9H526c-11.8,0-20.9-7.7-20.9-16.6c0,0-2.6-17.9,1.3-28.1c9.1-24.3,79.7-70.2,78.4-117.5v-17.9
				c0-30.6,3.9-117.5-15.7-220.9c-9.2-58.7-47-112.4-105.9-111.1c-81,2.5-101.9,104.7-107.1,159.6v192.8
				c0,56.2,82.3,100.9,82.3,130.2v11.5c0,8.9-7.8,17.9-19.6,17.9H77.8c-11.8,0-20.9-7.7-20.9-16.6c0,0-3.9-17.9,2.6-28.1
				c9.1-24.3,84.9-68.9,81-117.5V437.6c0-76.6-56.2-75.3-75.8-93.2C49.1,330.3,49.1,308.6,64.8,293.3z"/>
		</g>
		<g>
			<path class="st1" d="M1286.4,215.6h341.1c10.4,0,22.2,7.7,22.2,17.9c0,0,2.6,17.9,0,26.8c-11.8,21.7-47,46-22.2,94.5
				c18.3,24.3,37.9,51.1,56.2,79.2l67.9-69c49.7-56.2-2.6-71.5-19.6-104.7c-5.2-8.9-2.6-26.8-2.6-26.8c0-10.2,11.8-17.9,22.2-17.9
				h172.5c10.4,0,18.3,8.9,18.3,19.2V245c0,33.2-28.8,20.4-120.2,121.3c-24.8,30.6-77.1,81.7-105.8,112.4
				c7.8,10.2,91.5,129,111.1,155.8c49.7,65.1,115,104.7,115,134.1v12.8c0,7.7-7.8,16.6-18.3,16.6h-342.4c-10.4,0-20.9-7.7-20.9-16.6
				c0,0-3.9-17.9,1.3-28.1c11.8-24.3,49.7-48.5,15.7-104.7l-49.7-68.9l-67.9,70.2c-52.3,54.9,1.3,70.2,18.3,103.4
				c3.9,10.2,0,28.1,0,28.1c0,8.9-10.4,16.6-20.9,16.6h-171.2c-9.2,0-19.6-8.9-19.6-17.9v-11.5c0-29.4,31.4-20.4,118.9-118.8
				c28.8-31.9,82.3-86.8,107.2-114.9c0,0-82.3-114.9-109.8-151.9c-47-66.4-116.3-106-116.3-137.9v-10.2
				C1266.8,224.5,1277.3,215.6,1286.4,215.6z"/>
		</g>
	</g>
</g>
</svg>
